<?xml version="1.0" encoding="UTF-8"?>
<svg width="241px" height="157px" viewBox="0 0 241 157" version="1.1" xmlns="http://www.w3.org/2000/svg" xmlns:xlink="http://www.w3.org/1999/xlink">
    <title>logo</title>
    <defs>
        <linearGradient x1="50%" y1="100%" x2="50%" y2="-2.48949813e-15%" id="linearGradient-1">
            <stop stop-color="#AA367C" offset="0%"></stop>
            <stop stop-color="#D8D8D8" offset="100%"></stop>
        </linearGradient>
        <linearGradient x1="50%" y1="-2.48949813e-15%" x2="50%" y2="100%" id="linearGradient-2">
            <stop stop-color="#4A2FBD" offset="0%"></stop>
            <stop stop-color="#000000" stop-opacity="0.5" offset="100%"></stop>
        </linearGradient>
        <path d="M63.3277461,154.971204 C51.0277461,152.571204 38.2277461,142.271204 34.8277461,131.971204 C32.6277461,125.471204 33.1277461,114.171204 35.8277461,108.571204 C40.1277461,99.7712042 50.2277461,92.8712042 62.2277461,90.6712042 C67.6277461,89.6712042 68.7277461,89.0712042 68.5277461,87.6712042 C68.3277461,86.7712042 68.7277461,83.4712042 69.3277461,80.4712042 C71.2277461,71.3712042 79.0277461,65.0712042 88.4277461,65.0712042 C96.5277461,65.0712042 110.427746,72.1712042 119.627746,80.8712042 C121.627746,82.8712042 123.327746,84.1712042 123.327746,83.8712042 C123.327746,82.4712042 110.627746,60.8712042 104.227746,51.5712042 C87.3277461,26.6712042 72.8277461,14.1712042 55.3277461,9.57120424 C48.1277461,7.67120424 33.1277461,7.67120424 26.6277461,9.57120424 C19.9277461,11.5712042 12.9277461,16.4712042 9.0277461,21.8712042 C6.3277461,25.5712042 5.8277461,27.2712042 5.5277461,33.4712042 C5.1277461,39.7712042 5.4277461,41.4712042 7.7277461,45.9712042 C16.0277461,62.3712042 40.1277461,72.6712042 58.8277461,67.9712042 C65.3277461,66.3712042 71.8277461,60.2712042 73.2277461,54.4712042 C75.1277461,47.0712042 72.7277461,40.5712042 65.8277461,34.2712042 C62.7277461,31.3712042 58.4277461,28.5712042 55.7277461,27.6712042 C49.2277461,25.4712042 37.9277461,25.6712042 30.2277461,28.0712042 C26.7277461,29.0712042 23.7277461,29.7712042 23.4277461,29.4712042 C22.3277461,28.3712042 26.2277461,26.0712042 31.8277461,24.5712042 C54.6277461,18.6712042 77.4277461,31.8712042 77.3277461,50.9712042 C77.2277461,64.1712042 67.6277461,73.5712042 51.4277461,76.1712042 C26.6277461,80.2712042 0.527746097,61.8712042 0.0277460969,39.8712042 C-0.272253903,30.3712042 1.8277461,24.7712042 7.9277461,18.1712042 C17.7277461,7.47120424 33.8277461,2.77120424 52.2277461,4.97120424 C71.7277461,7.37120424 88.0277461,15.6712042 101.927746,30.1712042 C112.627746,41.4712042 117.327746,49.4712042 128.327746,75.3712042 C131.727746,83.4712042 136.127746,92.6712042 137.927746,95.6712042 C144.827746,107.171204 141.327746,105.671204 125.127746,90.4712042 C110.027746,76.2712042 103.027746,71.2712042 95.8277461,69.3712042 C86.4277461,66.8712042 81.3277461,70.8712042 81.3277461,80.7712042 C81.3277461,88.8712042 81.9277461,89.7712042 87.1277461,90.4712042 C110.627746,93.7712042 138.427746,106.571204 153.827746,121.271204 C162.027746,128.971204 165.327746,134.671204 165.327746,140.671204 C165.327746,147.271204 160.427746,151.071204 152.027746,151.071204 C145.527746,151.071204 132.627746,147.571204 122.027746,143.071204 L112.427746,138.871204 L106.627746,143.571204 C93.7277461,154.071204 78.9277461,157.971204 63.3277461,154.971204 Z M93.4277461,148.871204 C97.5277461,146.771204 102.827746,143.471204 105.227746,141.371204 L109.527746,137.571204 L102.227746,132.571204 C92.2277461,125.871204 79.7277461,113.071204 74.9277461,104.871204 L71.0277461,98.0712042 L66.9277461,98.7712042 C49.1277461,101.571204 37.3277461,112.171204 37.3277461,125.571204 C37.3277461,136.971204 46.3277461,146.971204 60.8277461,151.771204 C63.3277461,152.571204 68.7277461,152.971204 75.4277461,152.771204 C85.3277461,152.571204 86.4277461,152.371204 93.4277461,148.871204 Z M158.327746,146.771204 C173.527746,139.071204 147.927746,112.871204 115.327746,102.571204 C106.827746,99.9712042 87.0277461,97.0712042 85.7277461,98.3712042 C85.3277461,98.6712042 86.3277461,101.571204 87.9277461,104.771204 C89.9277461,108.771204 94.1277461,113.871204 101.527746,121.371204 C107.427746,127.271204 112.627746,132.071204 113.027746,132.071204 C113.427746,132.071204 116.027746,128.671204 118.627746,124.471204 C121.227746,120.271204 123.627746,117.071204 124.027746,117.371204 C124.927746,118.271204 122.627746,123.871204 119.327746,128.771204 C117.127746,131.971204 116.527746,133.671204 117.327746,134.471204 C119.027746,136.571204 136.427746,144.971204 142.327746,146.471204 C149.227746,148.271204 155.127746,148.371204 158.327746,146.771204 Z" id="path-3"></path>
        <linearGradient x1="50%" y1="-2.48949813e-15%" x2="50%" y2="100%" id="linearGradient-4">
            <stop stop-color="#D566B3" offset="0%"></stop>
            <stop stop-color="#AA367C" offset="100%"></stop>
        </linearGradient>
        <linearGradient x1="50%" y1="0%" x2="50%" y2="100%" id="linearGradient-5">
            <stop stop-color="#4A2FBD" offset="0%"></stop>
            <stop stop-color="#000000" stop-opacity="0.5" offset="100%"></stop>
        </linearGradient>
        <path d="M221.327746,126.671204 C207.427746,123.771204 193.727746,112.271204 179.327746,91.5712042 C166.227746,72.8712042 159.327746,66.8712042 147.827746,64.4712042 C144.827746,63.7712042 143.827746,63.0712042 143.827746,61.5712042 C143.827746,59.8712042 144.527746,59.5712042 148.127746,59.4712042 C153.427746,59.3712042 157.427746,56.5712042 159.027746,51.9712042 C159.827746,49.6712042 160.027746,44.0712042 159.627746,34.5712042 C159.027746,18.8712042 159.727746,15.0712042 164.327746,7.77120424 C167.627746,2.47120424 172.727746,-0.328795762 176.827746,0.671204238 C182.527746,2.07120424 201.927746,23.8712042 199.627746,26.1712042 C198.827746,26.9712042 197.227746,25.5712042 194.227746,21.3712042 C187.027746,11.6712042 179.927746,5.07120424 176.527746,5.07120424 C171.527746,5.07120424 171.227746,6.37120424 171.527746,24.2712042 C171.827746,41.8712042 171.227746,45.2712042 166.427746,52.4712042 C165.027746,54.5712042 161.727746,57.7712042 159.127746,59.5712042 L154.327746,62.7712042 L159.027746,64.5712042 C171.527746,69.1712042 181.727746,78.1712042 194.927746,96.0712042 C203.927746,108.271204 212.627746,117.671204 218.227746,121.271204 C223.427746,124.571204 231.027746,125.071204 237.027746,122.571204 C240.227746,121.171204 240.427746,121.171204 239.227746,122.671204 C235.827746,126.771204 229.027746,128.271204 221.327746,126.671204 Z" id="path-6"></path>
        <linearGradient x1="50%" y1="-2.48949813e-15%" x2="50%" y2="100%" id="linearGradient-7">
            <stop stop-color="#EC9FDA" offset="0%"></stop>
            <stop stop-color="#D566B3" offset="100%"></stop>
        </linearGradient>
        <linearGradient x1="50%" y1="0%" x2="50%" y2="100%" id="linearGradient-8">
            <stop stop-color="#4A2FBD" offset="0%"></stop>
            <stop stop-color="#000000" stop-opacity="0.5" offset="100%"></stop>
        </linearGradient>
        <path d="M178.427746,125.371204 C175.427746,124.271204 171.227746,121.071204 165.527746,115.671204 C153.127746,103.771204 139.927746,83.3712042 123.627746,50.5712042 C106.527746,16.3712042 88.7277461,2.17120424 63.1277461,2.07120424 C58.7277461,2.07120424 56.3277461,1.67120424 56.3277461,0.971204238 C56.3277461,-1.12879576 79.8277461,0.471204238 87.3277461,2.97120424 C102.427746,8.17120424 117.627746,20.6712042 128.227746,36.5712042 C134.527746,46.1712042 142.227746,61.8712042 149.327746,79.5712042 C152.227746,86.7712042 156.327746,96.0712042 158.527746,100.271204 C163.027746,109.071204 172.527746,119.971204 178.927746,123.671204 C181.327746,125.071204 183.327746,126.471204 183.327746,126.671204 C183.327746,126.871204 183.227746,127.071204 183.127746,126.971204 C182.927746,126.971204 180.827746,126.171204 178.427746,125.371204 Z" id="path-9"></path>
    </defs>
    <g id="Page-1" stroke="none" stroke-width="1" fill="none" fill-rule="evenodd">
        <g id="logo" transform="translate(0.672254, 0.118635)" fill-rule="nonzero">
            <g id="Group" transform="translate(119.952433, 77.976285) scale(-1, 1) rotate(-180.000000) translate(-119.952433, -77.976285) translate(0.000000, 0.000000)">
                <g id="Shape">
                    <use fill="url(#linearGradient-1)" xlink:href="#path-3"></use>
                    <use fill="url(#linearGradient-2)" xlink:href="#path-3"></use>
                </g>
                <g id="Path">
                    <use fill="url(#linearGradient-4)" xlink:href="#path-6"></use>
                    <use fill="url(#linearGradient-5)" xlink:href="#path-6"></use>
                </g>
                <g id="Path">
                    <use fill="url(#linearGradient-7)" xlink:href="#path-9"></use>
                    <use fill="url(#linearGradient-8)" xlink:href="#path-9"></use>
                </g>
            </g>
        </g>
    </g>
</svg>