<svg version="1.1" xmlns="http://www.w3.org/2000/svg" xmlns:xlink="http://www.w3.org/1999/xlink" viewBox="0 0 172 172"><g fill="none" fill-rule="nonzero" stroke="none" stroke-width="1" stroke-linecap="butt" stroke-linejoin="miter" stroke-miterlimit="10" stroke-dasharray="" stroke-dashoffset="0" font-family="none" font-weight="none" font-size="none" text-anchor="none" style="mix-blend-mode: normal"><path d="M0,172v-172h172v172z" fill="none"></path><g fill="#ffffff"><path d="M23.06771,7.19466c-1.6237,-0.17147 -3.2054,0.76286 -3.7793,2.30957c-6.53678,17.7102 -7.25065,35.92082 -6.18685,43c-8.81136,10.89697 -13.10156,23.44214 -13.10156,38.29688c0,47.73462 25.03084,74.01823 70.47689,74.01823l15.52311,0.014l15.52311,-0.014c45.44604,0 70.47689,-26.28361 70.47689,-74.01823c0,-14.85474 -4.28671,-27.4034 -13.10156,-38.29688c1.0638,-7.07918 0.34993,-25.28979 -6.18685,-43c-0.57389,-1.55021 -2.1521,-2.49154 -3.7933,-2.30957c-0.68938,0.08049 -16.83187,2.1521 -41.08236,19.70833c-5.27702,-1.26326 -13.08407,-1.97363 -21.83594,-1.97363c-8.75187,0 -16.55542,0.71037 -21.83594,1.97363c-24.25749,-17.55973 -40.40698,-19.62785 -41.09635,-19.70833zM55.56966,78.83333c4.09424,0 8.55241,0.34644 13.26953,0.71386c5.41349,0.42342 11.00195,0.86784 17.41276,0.86784c5.90341,0 11.50936,-0.44442 16.92285,-0.86784c4.71712,-0.36743 9.1648,-0.71386 13.25554,-0.71386c8.93384,0 14.4663,1.74268 18.47656,5.80892c5.59196,5.68294 8.42643,12.79362 8.42643,21.15007c0,31.55713 -20.05827,37.54101 -57.58528,37.54101c-37.01611,0 -57.08138,-5.98389 -57.08138,-37.54101c0,-8.35645 2.83797,-15.47063 8.42643,-21.15007c4.01375,-4.06974 9.54273,-5.80892 18.47656,-5.80892zM57.33333,86c-8.17098,0 -14.33333,10.78499 -14.33333,25.08333c0,14.29834 6.16235,25.08333 14.33333,25.08333c8.17098,0 14.33333,-10.78499 14.33333,-25.08333c0,-14.29834 -6.16235,-25.08333 -14.33333,-25.08333zM114.66667,86c-8.17098,0 -14.33333,10.78499 -14.33333,25.08333c0,14.29834 6.16235,25.08333 14.33333,25.08333c8.17098,0 14.33333,-10.78499 14.33333,-25.08333c0,-14.29834 -6.16235,-25.08333 -14.33333,-25.08333z"></path></g></g></svg>