<?xml version="1.0" encoding="UTF-8"?>
<svg width="401px" height="401px" viewBox="0 0 401 401" version="1.1" xmlns="http://www.w3.org/2000/svg" xmlns:xlink="http://www.w3.org/1999/xlink">
    <title>react</title>
    <defs>
        <linearGradient x1="-2.22044605e-14%" y1="50%" x2="100%" y2="50%" id="linearGradient-1">
            <stop stop-color="#AA367C" offset="0%"></stop>
            <stop stop-color="#264DE4" offset="100%"></stop>
        </linearGradient>
        <linearGradient x1="-2.22044605e-14%" y1="50%" x2="100%" y2="50%" id="linearGradient-2">
            <stop stop-color="#AA367C" offset="0%"></stop>
            <stop stop-color="#4A2FBD" offset="100%"></stop>
        </linearGradient>
        <rect id="path-3" x="0" y="0" width="385" height="385" rx="50"></rect>
    </defs>
    <g id="Page-1" stroke="none" stroke-width="1" fill="none" fill-rule="evenodd">
        <g id="react" transform="translate(8.000000, 8.000000)" fill-rule="nonzero">
            <g id="Rectangle" stroke-width="15">
                <use stroke="url(#linearGradient-1)" fill="#000000" xlink:href="#path-3"></use>
                <use stroke="url(#linearGradient-2)" xlink:href="#path-3"></use>
            </g>
            <g id="React-icon" transform="translate(51.900458, 67.500000)" fill="#61DAFB">
                <path d="M280.663615,125 C280.663615,106.407323 257.379862,88.7871854 221.681922,77.8604119 C229.919908,41.4759725 226.258581,12.5286041 210.125858,3.26086957 C206.407322,1.08695652 202.059496,0.057208238 197.311212,0.057208238 L197.311212,12.8146453 C199.942791,12.8146453 202.059496,13.3295195 203.832952,14.3020595 C211.613272,18.7643021 214.988558,35.7551487 212.356979,57.6086957 C211.727688,62.98627 210.69794,68.6498856 209.439359,74.4279176 C198.226544,71.6819222 185.983981,69.5652174 173.112128,68.1922197 C165.389016,57.6086957 157.379862,47.9977117 149.313501,39.5881007 C167.963386,22.2540046 185.469107,12.7574371 197.368421,12.7574371 L197.368421,0 C197.368421,0 197.368421,0 197.368421,0 C181.636155,0 161.04119,11.2128146 140.217391,30.6636156 C119.393592,11.3272311 98.798627,0.228832952 83.0663615,0.228832952 L83.0663615,12.98627 C94.9084668,12.98627 112.471396,22.4256293 131.121281,39.6453089 C123.112128,48.0549199 115.102974,57.6086957 107.494279,68.1922197 C94.5652174,69.5652174 82.3226544,71.6819222 71.1098398,74.4851259 C69.7940503,68.7643021 68.8215103,63.215103 68.1350114,57.8947368 C65.4462242,36.0411899 68.764302,19.0503432 76.4874142,14.5308924 C78.2036613,13.5011442 80.4347826,13.0434783 83.0663615,13.0434783 L83.0663615,0.28604119 C83.0663615,0.28604119 83.0663615,0.28604119 83.0663615,0.28604119 C78.2608695,0.28604119 73.9130434,1.31578947 70.1372997,3.48970252 C54.0617849,12.7574371 50.4576659,41.6475973 58.7528604,77.9176201 C23.1693364,88.9016018 5.88418203e-15,106.464531 5.88418203e-15,125 C5.88418203e-15,143.592677 23.2837528,161.212815 58.9816933,172.139588 C50.7437071,208.524027 54.4050343,237.471396 70.5377574,246.73913 C74.2562929,248.913043 78.604119,249.942792 83.4096109,249.942792 C99.1418764,249.942792 119.736842,238.729977 140.56064,219.279176 C161.384439,238.615561 181.979405,249.713959 197.71167,249.713959 C202.517162,249.713959 206.864988,248.684211 210.640732,246.510297 C226.716247,237.242563 230.320366,208.352403 222.025171,172.08238 C257.494279,161.155606 280.663615,143.535469 280.663615,125 Z M206.178489,86.8421053 C204.061785,94.221968 201.430206,101.830664 198.455377,109.439359 C196.109839,104.8627 193.649885,100.286041 190.961098,95.7093822 C188.329519,91.1327231 185.526315,86.6704805 182.723112,82.3226545 C190.846682,83.5240275 198.68421,85.0114416 206.178489,86.8421053 Z M179.977116,147.768879 C175.514874,155.491991 170.938215,162.814645 166.189931,169.622426 C157.665904,170.366133 149.02746,170.76659 140.331807,170.76659 C131.693364,170.76659 123.05492,170.366133 114.5881,169.679634 C109.839817,162.871854 105.205949,155.606407 100.743707,147.940503 C96.395881,140.446224 92.4485126,132.837529 88.8443936,125.171625 C92.3913043,117.505721 96.395881,109.839817 100.686499,102.345538 C105.148741,94.6224256 109.7254,87.2997712 114.473684,80.4919908 C122.997711,79.7482838 131.636155,79.3478261 140.331807,79.3478261 C148.970251,79.3478261 157.608695,79.7482838 166.075515,80.4347826 C170.823798,87.2425629 175.457666,94.5080092 179.919908,102.173913 C184.267734,109.668192 188.215103,117.276888 191.819222,124.942792 C188.215103,132.608696 184.267734,140.2746 179.977116,147.768879 Z M198.455377,140.331808 C201.544622,147.997712 204.176201,155.663616 206.350114,163.100686 C198.855835,164.93135 190.961098,166.475973 182.78032,167.677346 C185.583524,163.272311 188.386727,158.75286 191.018306,154.118993 C193.649885,149.542334 196.109839,144.908467 198.455377,140.331808 Z M140.446224,201.372998 C135.125858,195.881007 129.805492,189.759725 124.542334,183.066362 C129.691075,183.295195 134.954233,183.466819 140.274599,183.466819 C145.652174,183.466819 150.97254,183.352403 156.178489,183.066362 C151.029748,189.759725 145.709382,195.881007 140.446224,201.372998 Z M97.8832952,167.677346 C89.7597254,166.475973 81.9221968,164.988558 74.4279176,163.157895 C76.5446224,155.778032 79.1762013,148.169336 82.1510297,140.560641 C84.4965675,145.1373 86.9565217,149.713959 89.6453089,154.290618 C92.3340961,158.867277 95.0800915,163.329519 97.8832952,167.677346 Z M140.160183,48.6270023 C145.480549,54.1189931 150.800915,60.2402746 156.064073,66.9336384 C150.915331,66.7048055 145.652174,66.5331808 140.331807,66.5331808 C134.954233,66.5331808 129.633867,66.6475973 124.427917,66.9336384 C129.576659,60.2402746 134.897025,54.1189931 140.160183,48.6270023 Z M97.8260869,82.3226545 C95.0228833,86.7276888 92.2196796,91.2471396 89.5881007,95.8810069 C86.9565217,100.457666 84.4965675,105.034325 82.1510297,109.610984 C79.0617849,101.94508 76.4302059,94.2791762 74.2562929,86.8421053 C81.750572,85.0686499 89.6453089,83.5240275 97.8260869,82.3226545 Z M46.0526315,153.947368 C25.8009153,145.308924 12.7002288,133.981693 12.7002288,125 C12.7002288,116.018307 25.8009153,104.633867 46.0526315,96.0526316 C50.97254,93.9359268 56.3501144,92.0480549 61.8993135,90.2745995 C65.160183,101.487414 69.4508009,113.157895 74.771167,125.114416 C69.5080091,137.01373 65.2745995,148.627002 62.0709382,159.782609 C56.4073226,158.009153 51.0297482,156.064073 46.0526315,153.947368 Z M76.8306636,235.697941 C69.0503432,231.235698 65.6750572,214.244851 68.3066361,192.391304 C68.9359267,187.01373 69.965675,181.350114 71.2242563,175.572082 C82.4370709,178.318078 94.6796338,180.434783 107.551487,181.80778 C115.274599,192.391304 123.283753,202.002288 131.350114,210.411899 C112.700228,227.745995 95.194508,237.242563 83.2951945,237.242563 C80.7208238,237.185355 78.5469107,236.670481 76.8306636,235.697941 Z M212.528604,192.105263 C215.217391,213.95881 211.899313,230.949657 204.176201,235.469108 C202.459954,236.498856 200.228833,236.956522 197.597254,236.956522 C185.755148,236.956522 168.192219,227.517162 149.542334,210.297483 C157.551487,201.887872 165.56064,192.334096 173.169336,181.750572 C186.098398,180.377574 198.340961,178.26087 209.553775,175.457666 C210.869565,181.235698 211.899313,186.784897 212.528604,192.105263 Z M234.553775,153.947368 C229.633867,156.064073 224.256293,157.951945 218.707093,159.7254 C215.446224,148.512586 211.155606,136.842105 205.83524,124.885584 C211.098398,112.98627 215.331807,101.372998 218.535469,90.2173913 C224.199084,91.9908467 229.576659,93.9359268 234.610984,96.0526316 C254.8627,104.691076 267.963386,116.018307 267.963386,125 C267.906178,133.981693 254.805492,145.366133 234.553775,153.947368 Z" id="Shape"></path>
                <circle id="Oval" cx="140.274599" cy="125" r="26.1441648"></circle>
            </g>
        </g>
    </g>
</svg>