<?xml version="1.0" encoding="UTF-8"?>
<svg width="401px" height="401px" viewBox="0 0 401 401" version="1.1" xmlns="http://www.w3.org/2000/svg" xmlns:xlink="http://www.w3.org/1999/xlink">
    <title>html</title>
    <defs>
        <linearGradient x1="-2.22044605e-14%" y1="50%" x2="100%" y2="50%" id="linearGradient-1">
            <stop stop-color="#AA367C" offset="0%"></stop>
            <stop stop-color="#264DE4" offset="100%"></stop>
        </linearGradient>
        <linearGradient x1="-2.22044605e-14%" y1="50%" x2="100%" y2="50%" id="linearGradient-2">
            <stop stop-color="#AA367C" offset="0%"></stop>
            <stop stop-color="#4A2FBD" offset="100%"></stop>
        </linearGradient>
        <rect id="path-3" x="0" y="0" width="385" height="385" rx="50"></rect>
    </defs>
    <g id="Page-1" stroke="none" stroke-width="1" fill="none" fill-rule="evenodd">
        <g id="html" transform="translate(8.000000, 8.000000)" fill-rule="nonzero">
            <g id="Rectangle" stroke-width="15">
                <use stroke="url(#linearGradient-1)" fill="#FFFFFF" xlink:href="#path-3"></use>
                <use stroke="url(#linearGradient-2)" xlink:href="#path-3"></use>
            </g>
            <g id="HTML5_logo_and_wordmark" transform="translate(85.851562, 42.500000)">
                <path d="M19.8046875,0 L33.28125,0 L33.28125,13.359375 L45.703125,13.359375 L45.703125,0 L59.1796875,0 L59.1796875,40.4296875 L45.703125,40.4296875 L45.703125,26.953125 L33.3984375,26.953125 L33.3984375,40.4296875 L19.8046875,40.4296875 M76.9921875,13.4765625 L65.0976563,13.4765625 L65.0976563,0 L102.421875,0 L102.421875,13.4765625 L90.46875,13.4765625 L90.46875,40.4296875 L76.9921875,40.4296875 M108.339843,0 L122.460937,0 L131.132812,14.2382812 L139.804687,0 L153.925781,0 L153.925781,40.4296875 L140.449218,40.4296875 L140.449218,20.390625 L131.015625,34.921875 L121.582031,20.390625 L121.582031,40.4296875 L108.339843,40.4296875 M160.605468,0 L174.082031,0 L174.082031,27.0703125 L193.183593,27.0703125 L193.183593,40.4296875 L160.605468,40.4296875" id="Shape" fill="#E44D26"></path>
                <polyline id="Path" fill="#E44D26" points="19.3359375 275.976562 0 58.9453125 212.578125 58.9453125 193.242187 275.859375 106.113281 300"></polyline>
                <polyline id="Path" fill="#F16529" points="106.289062 281.542969 106.289062 76.7578125 193.183593 76.7578125 176.601562 261.914062"></polyline>
                <path d="M39.4921875,103.300781 L106.289062,103.300781 L106.289062,129.902344 L68.671875,129.902344 L71.1328125,157.148438 L106.289062,157.148438 L106.289062,183.691406 L46.7578125,183.691406 M47.9296875,197.050781 L74.6484375,197.050781 L76.5234375,218.320312 L106.289062,226.289062 L106.289062,254.0625 L51.6796875,238.828125" id="Shape" fill="#EBEBEB"></path>
                <path d="M172.851562,103.300781 L106.171875,103.300781 L106.171875,129.902344 L170.390625,129.902344 M167.988281,157.148438 L106.171875,157.148438 L106.171875,183.75 L138.984375,183.75 L135.878906,218.320312 L106.171875,226.289062 L106.171875,253.945312 L160.664062,238.828125" id="Shape" fill="#FFFFFF"></path>
            </g>
        </g>
    </g>
</svg>