<?xml version="1.0" encoding="UTF-8"?>
<svg width="401px" height="401px" viewBox="0 0 401 401" version="1.1" xmlns="http://www.w3.org/2000/svg" xmlns:xlink="http://www.w3.org/1999/xlink">
    <title>node js</title>
    <defs>
        <linearGradient x1="-2.22044605e-14%" y1="50%" x2="100%" y2="50%" id="linearGradient-1">
            <stop stop-color="#AA367C" offset="0%"></stop>
            <stop stop-color="#264DE4" offset="100%"></stop>
        </linearGradient>
        <linearGradient x1="-2.22044605e-14%" y1="50%" x2="100%" y2="50%" id="linearGradient-2">
            <stop stop-color="#AA367C" offset="0%"></stop>
            <stop stop-color="#4A2FBD" offset="100%"></stop>
        </linearGradient>
        <rect id="path-3" x="0" y="0" width="385" height="385" rx="50"></rect>
    </defs>
    <g id="Page-1" stroke="none" stroke-width="1" fill="none" fill-rule="evenodd">
        <g id="node-js" transform="translate(8.000000, 8.000000)" fill-rule="nonzero">
            <g id="Rectangle" stroke-width="15">
                <use stroke="url(#linearGradient-1)" fill="#000000" xlink:href="#path-3"></use>
                <use stroke="url(#linearGradient-2)" xlink:href="#path-3"></use>
            </g>
            <g id="Shape" transform="translate(59.500000, 42.832545)" fill="#83CD29">
                <path d="M254.411651,66.3266036 L145.248652,2.9409176 C138.364231,-0.980305865 129.400374,-0.980305865 122.461492,2.9409176 L12.1325228,66.3266036 C5.02778083,70.4136869 0,78.095225 0,86.3114754 L0,212.914512 C0,221.130762 5.15898339,228.814776 12.2637254,232.924139 L41.4129717,249.480416 C55.3451975,256.342557 60.2690065,256.342557 66.6088129,256.342557 C87.2373198,256.342557 99.0207944,243.868412 99.0207944,222.111068 L99.0207944,97.1220707 C99.0207944,95.357025 98.1023765,92.7304984 96.3695126,92.7304984 L82.4496644,92.7304984 C80.6870943,92.7304984 76.7411156,95.357025 76.7411156,97.1195951 L76.7411156,222.108593 C76.7411156,231.753218 68.0173837,241.350809 51.7136099,233.198922 L21.5939597,215.838101 C20.5443393,215.268731 19.8041589,214.122566 19.8041589,212.914512 L19.8041589,86.3114754 C19.8041589,85.1182749 21.1780724,83.9201233 22.2351194,83.3086699 L132.207614,20.0319067 C133.234954,19.4501596 134.745021,19.4501596 135.769887,20.0319067 L244.400649,83.2938167 C245.440367,83.9201233 245.073991,85.0811421 245.073991,86.3114754 L245.073991,212.914512 C245.073991,214.122566 245.527011,215.298438 244.49967,215.880185 L135.363901,279.194081 C134.428155,279.756024 133.267136,279.756024 132.242271,279.194081 L104.251568,262.486797 C103.407416,261.996644 102.40483,261.820882 101.595335,262.273902 C93.8073495,266.687754 92.371548,267.274452 85.0662889,269.806909 C83.2690615,270.433216 80.6177797,271.519969 86.0812521,274.582187 L122.713995,296.252888 C126.221807,298.282814 130.207394,299.337386 134.217736,299.337386 C138.282539,299.337386 142.263175,298.282814 145.770987,296.252888 L254.409176,232.924139 C261.513918,228.78507 264.880625,221.130762 264.880625,212.914512 L264.880625,86.3114754 C264.880625,78.095225 261.513918,70.4334911 254.411651,66.3266036 L254.411651,66.3266036 Z M168.112554,192.852899 C139.084608,192.852899 132.69034,184.844592 130.558917,170.409836 C130.311365,168.855209 128.991913,166.996094 127.410056,166.996094 L113.222852,166.996094 C111.467708,166.996094 110.056662,169.125041 110.056662,170.872758 C110.056662,189.354989 120.104797,211.748542 168.115029,211.748542 C202.868852,211.748542 222.794312,198.244581 222.794312,174.345912 C222.794312,150.650236 206.785125,144.43173 173.080922,139.970844 C139.012818,135.467873 135.552041,133.19287 135.552041,125.211794 C135.552041,118.631863 138.483056,109.856145 163.708604,109.856145 C186.248212,109.856145 194.556057,114.69331 197.97475,129.885576 C198.266861,131.313951 199.57146,132.338816 201.044394,132.338816 L215.288536,132.338816 C216.16487,132.338816 217.001595,131.984817 217.615524,131.35851 C218.209649,130.685169 218.52404,129.841016 218.444823,128.934976 C216.239135,102.773682 198.85851,90.5817472 163.706128,90.5817472 C132.437837,90.5817472 113.784795,103.78617 113.784795,125.919793 C113.784795,149.927385 132.343767,156.561778 162.359445,159.529926 C198.266861,163.050115 201.059247,168.298217 201.059247,175.360876 C201.059247,187.627077 191.211629,192.852899 168.112554,192.852899 Z"></path>
            </g>
        </g>
    </g>
</svg>