<?xml version="1.0" encoding="UTF-8"?>
<svg width="401px" height="401px" viewBox="0 0 401 401" version="1.1" xmlns="http://www.w3.org/2000/svg" xmlns:xlink="http://www.w3.org/1999/xlink">
    <title>css</title>
    <defs>
        <linearGradient x1="-2.22044605e-14%" y1="50%" x2="100%" y2="50%" id="linearGradient-1">
            <stop stop-color="#AA367C" offset="0%"></stop>
            <stop stop-color="#264DE4" offset="100%"></stop>
        </linearGradient>
        <linearGradient x1="-2.22044605e-14%" y1="50%" x2="100%" y2="50%" id="linearGradient-2">
            <stop stop-color="#AA367C" offset="0%"></stop>
            <stop stop-color="#4A2FBD" offset="100%"></stop>
        </linearGradient>
        <rect id="path-3" x="0" y="0" width="385" height="385" rx="50"></rect>
    </defs>
    <g id="Page-1" stroke="none" stroke-width="1" fill="none" fill-rule="evenodd">
        <g id="css" transform="translate(8.000000, 8.000000)" fill-rule="nonzero">
            <g id="Rectangle" stroke-width="15">
                <use stroke="url(#linearGradient-1)" fill="#000000" xlink:href="#path-3"></use>
                <use stroke="url(#linearGradient-2)" xlink:href="#path-3"></use>
            </g>
            <g id="CSS3_logo_and_wordmark" transform="translate(86.083908, 43.083908)">
                <polygon id="polygon2989" fill="#264DE4" points="211.803305 58.7528285 192.507479 274.915007 105.772025 298.960924 19.2753888 274.948873 5.10702591e-15 58.7528285"></polygon>
                <polygon id="polygon2991" fill="#2965F1" points="175.988136 261.150542 192.4777 76.4300609 105.901652 76.4300609 105.901652 280.58125"></polygon>
                <polygon id="polygon2993" fill="#EBEBEB" points="44.1884099 156.614067 46.5649156 183.129332 105.901652 183.129332 105.901652 156.614067"></polygon>
                <polygon id="polygon2995" fill="#EBEBEB" points="105.901652 102.94591 105.809979 102.94591 39.4132098 102.94591 41.8235822 129.461758 105.901652 129.461758"></polygon>
                <polygon id="polygon2997" fill="#EBEBEB" points="105.901652 253.065167 105.901652 225.477847 105.785455 225.508794 76.2548885 217.534946 74.3671138 196.387548 60.0175733 196.387548 47.7496651 196.387548 51.4644881 238.020776 105.779616 253.099034"></polygon>
                <polygon id="path2999" stroke="#000000" fill="#264DE4" points="49.8464789 5.10702591e-15 81.9614219 5.10702591e-15 81.9614219 13.4298852 63.2763642 13.4298852 63.2763642 26.8597705 81.9614219 26.8597705 81.9614219 40.2896558 49.8464789 40.2896558"></polygon>
                <polygon id="path3001" stroke="#000000" fill="#264DE4" points="88.3844106 5.10702591e-15 120.499354 5.10702591e-15 120.499354 11.6781611 101.814296 11.6781611 101.814296 14.0137933 120.499354 14.0137933 120.499354 40.8735638 88.3844106 40.8735638 88.3844106 28.6114947 107.069468 28.6114947 107.069468 26.2758624 88.3844106 26.2758624"></polygon>
                <polygon id="path3003" stroke="#000000" fill="#264DE4" points="126.922342 5.10702591e-15 159.037285 5.10702591e-15 159.037285 11.6781611 140.352228 11.6781611 140.352228 14.0137933 159.037285 14.0137933 159.037285 40.8735638 126.922342 40.8735638 126.922342 28.6114947 145.6074 28.6114947 145.6074 26.2758624 126.922342 26.2758624"></polygon>
                <polygon id="polygon3005" fill="#FFFFFF" points="138.460949 183.129332 135.38317 217.518013 105.809979 225.500036 105.809979 253.086188 160.168315 238.020776 160.567124 233.541034 166.798007 163.734242 167.444977 156.614067 172.231856 102.94591 105.809979 102.94591 105.809979 129.461758 143.173087 129.461758 140.760379 156.614067 105.809979 156.614067 105.809979 183.129332"></polygon>
            </g>
        </g>
    </g>
</svg>